<svg id="svg" fill="#000000" stroke="#000000" width="204" height="204" version="1.1" viewBox="144 144 512 512" xmlns="http://www.w3.org/2000/svg">
    <g id="IconSvg_bgCarrier" stroke-width="0"></g>
    <g id="IconSvg_tracerCarrier" stroke-linecap="round" stroke-linejoin="round" stroke="#CCCCCC" stroke-width="0">
      <path xmlns="http://www.w3.org/2000/svg" d="m400 389.5c15.309 0 29.992-6.082 40.82-16.91 10.824-10.824 16.906-25.508 16.906-40.82 0-15.309-6.082-29.992-16.906-40.82-10.828-10.824-25.512-16.906-40.82-16.906-15.312 0-29.996 6.082-40.82 16.906-10.828 10.828-16.91 25.512-16.91 40.82 0.019531 15.305 6.1055 29.98 16.93 40.801 10.82 10.824 25.492 16.91 40.801 16.93zm0-104.96c12.523 0 24.539 4.9766 33.398 13.832 8.8555 8.8594 13.832 20.871 13.832 33.398 0 12.527-4.9766 24.543-13.832 33.398-8.8594 8.8594-20.875 13.836-33.398 13.836-12.527 0-24.543-4.9766-33.398-13.836-8.8594-8.8555-13.836-20.871-13.836-33.398 0.015625-12.523 4.9961-24.527 13.852-33.383 8.8555-8.8516 20.859-13.836 33.383-13.848zm-120.65 235.38c0.16797-1.1133 4.2891-27.629 21.074-54.484 15.668-25.066 45.66-54.945 99.574-54.945s83.906 29.879 99.57 54.945c16.785 26.855 20.906 53.367 21.074 54.484 0.40625 2.8516-1.5664 5.4961-4.4141 5.9258-2.8516 0.42969-5.5117-1.5195-5.9648-4.3672-3.4297-17.992-10.137-35.203-19.781-50.773-20.742-32.992-51.188-49.719-90.484-49.719-39.422 0-69.93 16.828-90.672 50.012-15.641 25.027-19.559 50.227-19.598 50.477-0.45703 2.8398-3.1172 4.7812-5.957 4.3516-2.8438-0.42578-4.8164-3.0586-4.4219-5.9062zm120.65 79.496c52.891 0 103.61-21.008 141.01-58.41 37.398-37.398 58.41-88.121 58.41-141.01s-21.012-103.62-58.41-141.02c-24.734-24.836-55.578-42.715-89.426-51.836-33.844-9.1211-69.496-9.1562-103.36-0.10547-33.863 9.0469-64.746 26.863-89.531 51.648s-42.602 55.668-51.648 89.531c-9.0508 33.867-9.0156 69.52 0.10547 103.36 9.1211 33.848 27 64.691 51.836 89.426 18.477 18.578 40.449 33.305 64.656 43.332 24.207 10.023 50.16 15.152 76.359 15.078zm-133.59-333.02c30.906-30.906 71.574-50.141 115.07-54.426 43.5-4.2852 87.137 6.6445 123.48 30.93s63.145 60.418 75.832 102.25 10.48 86.758-6.2461 127.14-46.941 73.719-85.488 94.32c-38.547 20.605-83.047 27.207-125.92 18.68s-81.457-31.656-109.19-65.445c-27.727-33.785-42.883-76.145-42.883-119.85-0.066406-24.82 4.7891-49.41 14.285-72.34 9.5-22.934 23.453-43.75 41.051-61.254z"></path>

      </g>
     <g id="IconSvg_iconCarrier">
      <path xmlns="http://www.w3.org/2000/svg" d="m400 389.5c15.309 0 29.992-6.082 40.82-16.91 10.824-10.824 16.906-25.508 16.906-40.82 0-15.309-6.082-29.992-16.906-40.82-10.828-10.824-25.512-16.906-40.82-16.906-15.312 0-29.996 6.082-40.82 16.906-10.828 10.828-16.91 25.512-16.91 40.82 0.019531 15.305 6.1055 29.98 16.93 40.801 10.82 10.824 25.492 16.91 40.801 16.93zm0-104.96c12.523 0 24.539 4.9766 33.398 13.832 8.8555 8.8594 13.832 20.871 13.832 33.398 0 12.527-4.9766 24.543-13.832 33.398-8.8594 8.8594-20.875 13.836-33.398 13.836-12.527 0-24.543-4.9766-33.398-13.836-8.8594-8.8555-13.836-20.871-13.836-33.398 0.015625-12.523 4.9961-24.527 13.852-33.383 8.8555-8.8516 20.859-13.836 33.383-13.848zm-120.65 235.38c0.16797-1.1133 4.2891-27.629 21.074-54.484 15.668-25.066 45.66-54.945 99.574-54.945s83.906 29.879 99.57 54.945c16.785 26.855 20.906 53.367 21.074 54.484 0.40625 2.8516-1.5664 5.4961-4.4141 5.9258-2.8516 0.42969-5.5117-1.5195-5.9648-4.3672-3.4297-17.992-10.137-35.203-19.781-50.773-20.742-32.992-51.188-49.719-90.484-49.719-39.422 0-69.93 16.828-90.672 50.012-15.641 25.027-19.559 50.227-19.598 50.477-0.45703 2.8398-3.1172 4.7812-5.957 4.3516-2.8438-0.42578-4.8164-3.0586-4.4219-5.9062zm120.65 79.496c52.891 0 103.61-21.008 141.01-58.41 37.398-37.398 58.41-88.121 58.41-141.01s-21.012-103.62-58.41-141.02c-24.734-24.836-55.578-42.715-89.426-51.836-33.844-9.1211-69.496-9.1562-103.36-0.10547-33.863 9.0469-64.746 26.863-89.531 51.648s-42.602 55.668-51.648 89.531c-9.0508 33.867-9.0156 69.52 0.10547 103.36 9.1211 33.848 27 64.691 51.836 89.426 18.477 18.578 40.449 33.305 64.656 43.332 24.207 10.023 50.16 15.152 76.359 15.078zm-133.59-333.02c30.906-30.906 71.574-50.141 115.07-54.426 43.5-4.2852 87.137 6.6445 123.48 30.93s63.145 60.418 75.832 102.25 10.48 86.758-6.2461 127.14-46.941 73.719-85.488 94.32c-38.547 20.605-83.047 27.207-125.92 18.68s-81.457-31.656-109.19-65.445c-27.727-33.785-42.883-76.145-42.883-119.85-0.066406-24.82 4.7891-49.41 14.285-72.34 9.5-22.934 23.453-43.75 41.051-61.254z"></path>

      </g>
      </svg>