<?xml version="1.0" standalone="no"?>
<!DOCTYPE svg PUBLIC "-//W3C//DTD SVG 20010904//EN"
 "http://www.w3.org/TR/2001/REC-SVG-20010904/DTD/svg10.dtd">
<svg version="1.0" xmlns="http://www.w3.org/2000/svg"
 width="360.000000pt" height="240.000000pt" viewBox="0 0 360.000000 240.000000"
 preserveAspectRatio="xMidYMid meet">

<g transform="translate(0.000000,240.000000) scale(0.100000,-0.100000)"
fill="#000000" stroke="none">
<path d="M1628 2170 c-443 -52 -818 -379 -935 -815 -23 -89 -26 -119 -27 -270
-1 -148 2 -182 23 -263 20 -81 26 -92 45 -92 l22 0 -24 93 c-34 129 -40 303
-17 434 38 214 128 394 274 547 421 442 1114 442 1531 -1 124 -131 211 -286
258 -462 22 -85 25 -115 25 -261 0 -144 -3 -177 -24 -257 l-25 -93 21 0 c19 0
25 12 45 93 31 124 38 309 17 432 -41 235 -141 429 -307 596 -240 241 -570
357 -902 319z"/>
<path d="M1663 2073 c-15 -5 -6 -150 10 -171 6 -8 29 -11 61 -10 45 3 51 5 48
23 -2 11 -4 52 -5 90 -2 62 -4 70 -22 70 -18 0 -20 -8 -23 -62 -4 -91 -32 -81
-32 12 0 42 -11 57 -37 48z"/>
<path d="M1830 2050 c-28 -28 -25 -46 10 -72 36 -26 40 -47 5 -24 -30 20 -45
14 -45 -19 0 -49 73 -72 110 -35 32 32 26 68 -14 85 -39 17 -53 32 -39 46 6 6
16 2 28 -11 25 -27 45 -25 45 5 0 44 -64 61 -100 25z"/>
<path d="M1564 2028 c4 -18 9 -55 12 -83 6 -45 5 -48 -8 -31 -17 22 -38 14
-38 -14 0 -32 60 -41 97 -15 l21 15 -19 55 c-10 30 -19 66 -19 80 0 20 -5 25
-26 25 -24 0 -26 -3 -20 -32z"/>
<path d="M1974 2035 c-7 -18 3 -35 22 -35 20 0 18 -24 -6 -70 -27 -52 -25 -68
6 -76 29 -7 44 7 44 41 0 11 5 37 11 58 8 32 13 36 25 27 17 -15 44 -6 44 14
0 10 -23 22 -66 36 -79 24 -73 24 -80 5z"/>
<path d="M1289 1961 l-24 -19 27 -54 c15 -29 29 -61 32 -70 8 -28 60 -23 96
10 34 30 33 62 -2 62 -12 0 -17 -4 -12 -12 4 -6 3 -8 -3 -5 -6 4 -14 -1 -17
-10 -5 -13 -9 -14 -19 -4 -9 10 -8 14 6 22 19 11 23 34 7 44 -6 4 -17 1 -25
-5 -12 -10 -18 -10 -30 0 -22 18 -18 28 12 32 14 2 28 9 31 16 6 20 -53 15
-79 -7z"/>
<path d="M2206 1892 c-32 -34 -45 -94 -25 -118 35 -42 101 -35 120 13 7 20 6
30 -5 41 -16 17 -40 7 -32 -14 7 -18 -8 -18 -23 0 -15 18 -4 64 19 76 20 11
30 4 30 -21 0 -25 19 -34 36 -17 13 13 12 18 -6 41 -30 37 -77 37 -114 -1z"/>
<path d="M1149 1871 l-24 -20 33 -33 c18 -19 36 -48 41 -65 l9 -30 -37 7 c-20
3 -55 17 -79 31 l-43 24 -19 -23 c-20 -24 -20 -24 5 -56 32 -42 48 -113 28
-120 -23 -9 -45 -7 -38 4 7 12 -42 60 -62 60 -22 0 -83 -65 -83 -88 0 -13 9
-23 23 -28 12 -4 39 -22 60 -41 41 -36 63 -39 81 -10 9 15 6 23 -19 43 l-30
25 41 -6 c30 -5 44 -2 54 9 7 9 9 16 5 16 -4 0 4 9 19 21 27 22 35 54 14 62
-10 3 -10 8 1 18 10 11 15 11 18 2 8 -21 40 -15 61 12 11 13 31 29 45 36 51
23 61 91 21 138 -20 25 -34 31 -64 31 -22 0 -47 -8 -61 -19z m94 -22 c6 -9 7
-25 3 -35 -7 -18 -9 -17 -32 9 -13 15 -24 33 -24 38 0 16 42 6 53 -12z m-153
-128 c0 -17 -18 -21 -24 -6 -3 9 0 15 9 15 8 0 15 -4 15 -9z m-130 -126 c0
-15 -6 -25 -14 -25 -22 0 -30 19 -16 35 18 22 30 18 30 -10z"/>
<path d="M1584 1815 c-136 -29 -261 -100 -370 -209 -91 -91 -149 -185 -191
-311 -24 -71 -27 -96 -27 -220 -1 -120 2 -151 23 -215 35 -114 56 -150 87
-150 30 0 30 0 -11 99 -30 70 -54 190 -54 261 0 173 79 365 202 492 146 150
346 228 552 215 179 -11 327 -79 460 -212 137 -137 205 -301 205 -495 0 -109
-23 -218 -64 -299 -14 -28 -26 -53 -26 -56 0 -3 13 -5 29 -5 25 0 31 7 54 58
44 99 60 178 60 302 0 137 -23 233 -84 350 -102 198 -276 334 -493 390 -93 24
-256 26 -352 5z"/>
<path d="M2352 1806 c-30 -16 -62 -65 -62 -93 0 -30 38 -63 73 -63 62 0 123
81 97 129 -21 40 -66 51 -108 27z m74 -60 c-7 -27 -42 -44 -58 -28 -15 15 -1
48 25 59 28 14 41 1 33 -31z"/>
<path d="M2491 1707 c-9 -11 -8 -17 4 -27 23 -19 19 -25 -35 -54 -59 -32 -64
-39 -50 -66 16 -29 35 -25 79 20 44 45 49 47 66 23 12 -16 45 -13 45 4 0 12
-74 106 -86 110 -6 2 -16 -3 -23 -10z"/>
<path d="M1732 1467 c-116 -117 -212 -216 -212 -220 0 -4 13 -7 29 -7 18 0 31
-6 35 -17 4 -9 6 -117 6 -239 -1 -123 1 -228 5 -234 7 -12 244 -14 262 -2 9 6
13 59 15 187 l3 180 73 3 c63 3 72 1 73 -15 0 -10 0 -89 -1 -176 -1 -109 2
-163 11 -173 9 -11 41 -14 145 -14 l134 0 2 248 3 247 28 3 c15 2 27 7 27 11
0 9 -409 431 -418 431 -4 0 -103 -96 -220 -213z"/>
<path d="M1332 1427 c-105 -106 -192 -197 -192 -204 0 -6 10 -13 23 -15 22 -3
22 -4 27 -228 l5 -225 160 0 160 0 0 225 0 225 -62 3 c-35 2 -63 6 -63 10 0 4
63 70 140 147 77 77 140 145 140 152 0 14 -113 103 -132 103 -7 0 -100 -87
-206 -193z"/>
<path d="M836 1468 c-29 -42 -15 -87 34 -113 40 -21 93 -19 113 3 45 49 -9
139 -65 110 -26 -13 -23 -42 3 -35 15 4 19 1 17 -11 -5 -25 -76 -29 -85 -6 -4
12 1 22 15 32 12 8 22 21 22 28 0 22 -37 16 -54 -8z"/>
<path d="M2504 1426 c-9 -25 23 -68 46 -61 10 3 21 1 25 -5 4 -7 -2 -14 -14
-17 -25 -6 -29 -54 -6 -73 12 -10 20 -6 47 25 18 20 48 46 66 57 26 16 32 26
30 47 -3 25 -6 26 -63 27 -33 0 -75 4 -92 8 -26 7 -34 5 -39 -8z m146 -47 c0
-5 -7 -9 -15 -9 -15 0 -20 12 -9 23 8 8 24 -1 24 -14z"/>
<path d="M764 1231 c-2 -2 -4 -13 -4 -23 0 -18 9 -22 43 -19 12 2 17 -5 17
-24 0 -21 -4 -26 -22 -25 -43 4 -49 0 -46 -22 2 -19 9 -23 43 -24 22 0 50 -6
62 -12 32 -18 61 -15 73 7 18 35 2 53 -44 49 -36 -2 -41 0 -44 21 -3 21 -1 22
30 16 18 -4 35 -7 38 -7 23 -1 30 5 30 26 0 14 -6 28 -12 33 -13 8 -156 11
-164 4z"/>
<path d="M2726 1182 c-4 -4 -40 -7 -79 -7 l-72 0 -3 -41 c-2 -27 2 -45 12 -53
24 -20 44 -7 39 23 -5 26 -5 26 61 26 63 0 66 1 66 24 0 26 -12 40 -24 28z"/>
<path d="M2592 1044 c-39 -27 -28 -95 19 -119 53 -28 125 -11 135 31 8 33 0
69 -14 66 -8 -1 -11 2 -7 8 17 27 -97 40 -133 14z m123 -51 c16 -16 16 -17 -1
-30 -24 -17 -49 -17 -64 2 -10 12 -10 18 0 30 16 20 45 19 65 -2z"/>
<path d="M751 1008 c2 -73 12 -103 34 -103 15 0 20 7 20 25 0 24 3 25 55 26
82 1 82 1 78 32 -3 24 -7 27 -38 26 -19 -1 -52 -5 -73 -9 -35 -7 -37 -6 -35
16 2 18 -2 25 -19 27 -21 3 -23 0 -22 -40z"/>
<path d="M835 878 c-47 -25 -60 -81 -27 -111 47 -43 134 17 90 61 -6 6 -9 14
-5 18 11 11 24 -5 30 -36 7 -35 31 -40 47 -10 12 23 -9 74 -35 84 -25 9 -78 7
-100 -6z m43 -70 c-6 -18 -28 -21 -28 -4 0 9 7 16 16 16 9 0 14 -5 12 -12z"/>
<path d="M2551 866 c-24 -28 -9 -50 39 -59 96 -18 93 -17 80 -32 -15 -18 -6
-45 14 -45 10 0 21 19 30 53 24 83 24 92 -1 95 -17 2 -22 -3 -25 -22 l-3 -25
-41 18 c-67 30 -80 33 -93 17z"/>
<path d="M2596 690 c-16 -33 -21 -35 -54 -32 l-37 4 27 -28 c25 -28 26 -31 12
-62 -7 -19 -10 -32 -6 -30 4 2 19 10 35 17 25 13 29 12 50 -7 32 -30 37 -28
27 10 -10 35 -1 53 31 63 27 9 13 25 -21 25 -24 0 -31 5 -36 28 -3 15 -7 32
-9 37 -1 6 -10 -6 -19 -25z"/>
<path d="M880 685 c0 -27 -25 -45 -62 -45 -21 0 -20 -2 11 -22 29 -19 32 -25
28 -55 -7 -39 -2 -41 30 -11 23 22 25 22 54 6 16 -9 29 -16 29 -14 0 2 -5 17
-11 35 -10 28 -9 35 12 57 l22 24 -36 0 c-30 0 -40 5 -49 25 -14 32 -28 32
-28 0z"/>
<path d="M1057 652 c-14 -15 -17 -41 -17 -138 l0 -120 29 -17 c67 -39 151 -7
151 59 0 32 -2 34 -35 34 -24 0 -35 -5 -35 -15 0 -8 -9 -15 -20 -15 -18 0 -20
7 -20 80 0 67 3 80 16 80 9 0 18 -9 21 -19 5 -19 6 -19 39 2 39 26 43 49 12
71 -32 23 -120 21 -141 -2z"/>
<path d="M1291 646 c-20 -21 -22 -32 -20 -134 1 -108 2 -110 30 -131 37 -28
98 -28 133 0 25 20 26 23 26 139 0 111 -1 120 -22 134 -13 10 -43 16 -73 16
-41 0 -56 -5 -74 -24z m97 -129 c3 -72 1 -77 -18 -77 -18 0 -20 6 -20 81 0 71
2 80 18 77 14 -3 17 -16 20 -81z"/>
<path d="M1533 651 c-21 -18 -23 -27 -23 -134 l0 -115 34 -21 c43 -27 96 -27
130 0 25 20 26 23 26 139 0 114 -1 118 -25 134 -34 22 -114 21 -142 -3z m95
-134 c3 -72 1 -77 -18 -77 -18 0 -20 6 -20 81 0 71 2 80 18 77 14 -3 17 -16
20 -81z"/>
<path d="M1745 515 l0 -155 103 0 102 0 0 43 0 43 -61 -4 -61 -5 4 117 3 116
-45 0 -45 0 0 -155z"/>
<path d="M1995 515 l0 -155 103 0 102 0 0 43 0 43 -60 -4 c-57 -4 -60 -3 -60
18 0 21 3 22 50 18 l50 -5 0 41 0 41 -50 -3 c-48 -4 -50 -3 -50 22 0 24 3 26
48 26 26 0 53 -5 60 -12 9 -9 12 -2 12 35 l0 47 -102 0 -103 0 0 -155z"/>
<path d="M2245 516 l0 -153 40 1 40 1 3 47 c2 30 8 48 18 52 26 10 34 -3 34
-55 l0 -49 45 0 c42 0 58 11 35 25 -5 3 -10 33 -10 66 0 39 -4 59 -12 59 -9 0
-9 3 0 12 7 7 12 36 12 64 0 72 -18 84 -125 84 l-80 0 0 -154z m132 68 c2 -6
-8 -19 -22 -28 -25 -16 -25 -16 -25 14 0 27 3 31 22 28 12 -2 23 -8 25 -14z"/>
<path d="M1455 346 c-24 -18 -13 -45 25 -59 17 -6 30 -15 30 -20 0 -15 -33
-20 -52 -8 -17 11 -19 10 -16 -6 2 -13 12 -18 38 -18 28 0 37 5 47 26 11 22
26 30 83 44 67 16 73 16 116 0 48 -18 64 -38 64 -83 0 -37 -28 -62 -68 -62
-41 0 -69 38 -52 69 14 27 17 26 16 -1 -1 -17 5 -23 19 -23 15 0 20 7 20 25 0
21 -5 25 -30 25 -21 0 -33 -7 -44 -27 -14 -25 -14 -29 5 -55 31 -42 85 -44
124 -4 36 36 39 77 8 116 -41 53 -133 70 -216 41 -36 -13 -42 -13 -53 0 -22
27 -45 34 -64 20z m55 -31 c0 -21 -49 -19 -57 1 -3 9 0 20 8 24 17 11 49 -6
49 -25z"/>
<path d="M1809 314 c-17 -21 0 -48 33 -52 28 -3 42 18 33 49 -8 23 -48 25 -66
3z"/>
<path d="M1917 314 c-4 -4 -7 -16 -7 -26 0 -14 6 -19 23 -16 14 2 22 10 22 23
0 20 -25 32 -38 19z"/>
<path d="M1993 304 c-9 -23 13 -40 32 -24 12 10 13 16 4 26 -15 18 -28 18 -36
-2z"/>
<path d="M2075 301 c-7 -12 12 -24 25 -16 11 7 4 25 -10 25 -5 0 -11 -4 -15
-9z"/>
</g>
</svg>
