<?xml version="1.0" standalone="no"?>
<!DOCTYPE svg PUBLIC "-//W3C//DTD SVG 20010904//EN"
 "http://www.w3.org/TR/2001/REC-SVG-20010904/DTD/svg10.dtd">
<svg version="1.0" xmlns="http://www.w3.org/2000/svg"
 width="512.000000pt" height="512.000000pt" viewBox="0 0 512.000000 512.000000"
 preserveAspectRatio="xMidYMid meet">

<g transform="translate(0.000000,512.000000) scale(0.100000,-0.100000)"
fill="#000000" stroke="none">
<path d="M224 4679 c-49 -14 -125 -69 -161 -117 -138 -182 -32 -454 195 -501
75 -16 4529 -16 4604 0 100 21 187 91 230 184 35 76 33 191 -5 267 -30 62 -83
115 -149 150 l-43 23 -2320 2 c-1375 1 -2333 -2 -2351 -8z"/>
<path d="M224 2759 c-18 -5 -53 -24 -80 -41 -238 -161 -162 -525 121 -578 43
-8 457 -10 1480 -8 l1420 3 57 27 c153 71 223 235 171 399 -13 41 -32 69 -78
114 -104 104 51 95 -1610 94 -837 0 -1463 -5 -1481 -10z"/>
<path d="M224 839 c-49 -14 -125 -69 -161 -117 -138 -182 -32 -454 195 -501
35 -7 241 -11 600 -11 591 0 619 2 699 54 56 35 89 74 120 141 75 164 -6 361
-177 426 -48 18 -81 19 -648 18 -328 0 -611 -5 -628 -10z"/>
</g>
</svg>
